<?xml version="1.0" encoding="UTF-8"?>
<svg xmlns="http://www.w3.org/2000/svg" xmlns:xlink="http://www.w3.org/1999/xlink" width="16pt" height="16pt" viewBox="0 0 16 16" version="1.1">
<g id="surface1">
<path style=" stroke:none;fill-rule:nonzero;fill:rgb(37.647059%,37.647059%,37.647059%);fill-opacity:1;" d="M 15.917969 2.65625 L 13.746094 0.117188 C 13.679688 0.0429688 13.585938 0 13.488281 0 L 5.511719 0 C 5.347656 0 5.210938 0.113281 5.175781 0.273438 L 2.941406 11.324219 L 1.597656 11.324219 C 0.699219 11.324219 0 12.351562 0 13.664062 C 0 14.972656 0.699219 16 1.597656 16 L 10.53125 16 C 11.863281 16 13.046875 14.972656 13.40625 13.5 L 15.992188 2.957031 C 16.015625 2.851562 15.988281 2.738281 15.917969 2.65625 Z M 14.917969 2.535156 L 13.300781 2.535156 L 13.660156 1.066406 Z M 9.226562 15.320312 L 1.597656 15.320312 C 1.164062 15.320312 0.679688 14.640625 0.679688 13.664062 C 0.679688 12.6875 1.164062 12.007812 1.597656 12.007812 L 9.226562 12.007812 C 8.957031 12.425781 8.789062 13.011719 8.789062 13.664062 C 8.789062 14.316406 8.957031 14.898438 9.226562 15.320312 Z M 12.746094 13.335938 C 12.460938 14.503906 11.550781 15.320312 10.53125 15.320312 L 10.3125 15.320312 C 9.960938 15.320312 9.578125 14.792969 9.488281 14.003906 L 11.492188 14.003906 C 11.679688 14.003906 11.832031 13.851562 11.832031 13.664062 C 11.832031 12.351562 11.164062 11.324219 10.3125 11.324219 L 3.636719 11.324219 L 5.789062 0.679688 L 13.054688 0.679688 L 12.535156 2.796875 C 12.472656 3.011719 12.652344 3.21875 12.867188 3.21875 L 15.226562 3.21875 Z M 9.488281 13.324219 C 9.578125 12.53125 9.960938 12.007812 10.3125 12.007812 C 10.660156 12.007812 11.046875 12.53125 11.132812 13.324219 Z M 9.488281 13.324219 "/>
</g>
</svg>
