<?xml version="1.0" encoding="UTF-8"?>
<svg xmlns="http://www.w3.org/2000/svg" xmlns:xlink="http://www.w3.org/1999/xlink" width="24pt" height="24pt" viewBox="0 0 24 24" version="1.1">
<g id="surface1">
<path style=" stroke:none;fill-rule:nonzero;fill:rgb(37.647059%,37.647059%,37.647059%);fill-opacity:1;" d="M 23.878906 3.984375 L 20.621094 0.175781 C 20.519531 0.0664062 20.378906 0 20.230469 0 L 8.269531 0 C 8.019531 0 7.816406 0.167969 7.761719 0.410156 L 4.410156 16.988281 L 2.394531 16.988281 C 1.050781 16.988281 0 18.527344 0 20.496094 C 0 22.457031 1.050781 24 2.394531 24 L 15.796875 24 C 17.792969 24 19.570312 22.457031 20.109375 20.25 L 23.988281 4.433594 C 24.023438 4.277344 23.980469 4.105469 23.878906 3.984375 Z M 22.378906 3.800781 L 19.949219 3.800781 L 20.488281 1.597656 Z M 13.839844 22.980469 L 2.394531 22.980469 C 1.746094 22.980469 1.019531 21.960938 1.019531 20.496094 C 1.019531 19.03125 1.746094 18.011719 2.394531 18.011719 L 13.839844 18.011719 C 13.433594 18.636719 13.183594 19.519531 13.183594 20.496094 C 13.183594 21.472656 13.433594 22.347656 13.839844 22.980469 Z M 19.121094 20.003906 C 18.691406 21.753906 17.324219 22.980469 15.796875 22.980469 L 15.46875 22.980469 C 14.941406 22.980469 14.367188 22.191406 14.230469 21.003906 L 17.238281 21.003906 C 17.519531 21.003906 17.746094 20.777344 17.746094 20.496094 C 17.746094 18.527344 16.746094 16.988281 15.46875 16.988281 L 5.457031 16.988281 L 8.683594 1.019531 L 19.582031 1.019531 L 18.800781 4.195312 C 18.707031 4.519531 18.980469 4.828125 19.300781 4.828125 L 22.839844 4.828125 Z M 14.230469 19.988281 C 14.367188 18.796875 14.941406 18.011719 15.46875 18.011719 C 15.988281 18.011719 16.570312 18.796875 16.699219 19.988281 Z M 14.230469 19.988281 "/>
</g>
</svg>
