<?xml version="1.0" encoding="iso-8859-1"?>
<!-- Generator: Adobe Illustrator 19.0.0, SVG Export Plug-In . SVG Version: 6.00 Build 0)  -->
<svg version="1.1" id="Capa_1" xmlns="http://www.w3.org/2000/svg" xmlns:xlink="http://www.w3.org/1999/xlink" x="0px" y="0px"
	 viewBox="0 0 490 490" style="enable-background:new 0 0 490 490;" xml:space="preserve">
<path d="M487.491,81.312L420.967,3.645C418.987,1.328,416.095,0,413.051,0H168.763c-4.963,0-9.234,3.496-10.217,8.358
	L90.118,346.862H48.88C21.472,346.862,0,378.301,0,418.436C0,458.56,21.472,490,48.88,490h273.615
	c40.821,0,77.046-31.491,88.098-76.583l79.108-322.845C490.499,87.308,489.68,83.862,487.491,81.312z M456.916,77.667h-49.608
	l11.036-45.036L456.916,77.667z M282.606,469.149H48.88c-13.256,0-28.029-20.831-28.029-50.713
	c0-29.892,14.773-50.722,28.029-50.722h49.766h183.961c-8.344,12.868-13.436,30.714-13.436,50.722
	C269.17,438.439,274.262,456.281,282.606,469.149z M390.342,408.448c-8.755,35.736-36.657,60.701-67.847,60.701h-6.705
	c-10.715,0-22.506-16.097-25.198-40.287h61.388c5.758,0,10.426-4.663,10.426-10.426c0-40.134-20.475-71.574-46.615-71.574H111.387
	L177.29,20.851h222.474l-15.867,64.762c-1.917,6.566,3.543,12.905,10.125,12.905h72.266L390.342,408.448z M290.591,408.01
	c2.693-24.201,14.483-40.297,25.198-40.297c10.711,0,22.501,16.096,25.193,40.297H290.591z"/>
<g>
</g>
<g>
</g>
<g>
</g>
<g>
</g>
<g>
</g>
<g>
</g>
<g>
</g>
<g>
</g>
<g>
</g>
<g>
</g>
<g>
</g>
<g>
</g>
<g>
</g>
<g>
</g>
<g>
</g>
</svg>
